<svg xmlns="http://www.w3.org/2000/svg" id="Bookcase" viewBox="0 0 1000 1000">
  <path d="M868.62,692.2H131.38a14,14,0,0,1-14-14v-537A80.32,80.32,0,0,1,197.61,61H802.39a80.32,80.32,0,0,1,80.23,80.23v537A14,14,0,0,1,868.62,692.2Zm-723.24-28H854.62v-523A52.29,52.29,0,0,0,802.39,89H197.61a52.29,52.29,0,0,0-52.23,52.23Z" fill="#111827" class="color000000 svgShape"></path>
  <path d="M802.39,692.2H197.61a14,14,0,0,1-14-14v-537a14,14,0,0,1,14-14H802.39a14,14,0,0,1,14,14v537A14,14,0,0,1,802.39,692.2Zm-590.78-28H788.39v-509H211.61Z" fill="#111827" class="color000000 svgShape"></path>
  <path d="M802.39 423.72H197.61a14 14 0 0 1 0-28H802.39a14 14 0 1 1 0 28ZM868.62 939H131.38a14 14 0 0 1-14-14V678.2a14 14 0 0 1 14-14H868.62a14 14 0 0 1 14 14V925A14 14 0 0 1 868.62 939ZM145.38 911H854.62V692.2H145.38Z" fill="#111827" class="color000000 svgShape"></path>
  <path d="M500 939a14 14 0 0 1-14-14V678.2a14 14 0 0 1 28 0V925A14 14 0 0 1 500 939ZM567 842.41a14 14 0 0 1-14-14V774.79a14 14 0 0 1 28 0v53.62A14 14 0 0 1 567 842.41ZM433 842.41a14 14 0 0 1-14-14V774.79a14 14 0 0 1 28 0v53.62A14 14 0 0 1 433 842.41ZM531.12 423.72H461.54a14 14 0 0 1-14-14V230.81a14 14 0 0 1 14-14h69.58a14 14 0 0 1 14 14V409.72A14 14 0 0 1 531.12 423.72Zm-55.58-28h41.58V244.81H475.54ZM670.28 423.72H600.7a14 14 0 0 1-14-14V251.15a14 14 0 0 1 14-14h69.58a14 14 0 0 1 14 14V409.72A14 14 0 0 1 670.28 423.72Zm-55.58-28h41.58V265.15H614.7Z" fill="#111827" class="color000000 svgShape"></path>
  <path d="M392.31 423.72a13.88 13.88 0 0 1-6.1-1.41l-62.6-30.37a14 14 0 0 1-6.48-18.71l69.22-142.66a14 14 0 0 1 18.7-6.48l62.6 30.37a14 14 0 0 1 6.49 18.71L404.92 415.83A14 14 0 0 1 392.31 423.72Zm-43.88-50.86L385.84 391l57-117.47-37.4-18.15ZM600.7 423.72H531.12a14 14 0 0 1-14-14v-200a14 14 0 0 1 14-14H600.7a14 14 0 0 1 14 14v200A14 14 0 0 1 600.7 423.72Zm-55.58-28H586.7v-172H545.12ZM426.57 692.2H360.3a14 14 0 0 1-14-14V507.78a14 14 0 0 1 14-14h66.27a14 14 0 0 1 14 14V678.2A14 14 0 0 1 426.57 692.2Zm-52.27-28h38.27V521.78H374.3Z" fill="#111827" class="color000000 svgShape"></path>
  <path d="M492.51 692.2a14 14 0 0 1-12.6-7.89L414 548.42a14 14 0 0 1 6.48-18.71l59.63-28.93a14 14 0 0 1 18.71 6.49l65.93 135.89a14 14 0 0 1-6.48 18.71L498.62 690.8A14 14 0 0 1 492.51 692.2ZM445.28 548.79 499 659.5l34.44-16.71-53.71-110.7ZM360.29 692.2H294a14 14 0 0 1-14-14V487.69a14 14 0 0 1 14-14h66.27a14 14 0 0 1 14 14V678.2A14 14 0 0 1 360.29 692.2ZM308 664.2h38.27V501.69H308Z" fill="#111827" class="color000000 svgShape"></path>
</svg>
