<svg width="22" height="22" viewBox="0 0 22 22" fill="none" xmlns="http://www.w3.org/2000/svg">
<path d="M11 5.90332V8.95582" stroke="#111827" stroke-width="1.5" stroke-miterlimit="10" stroke-linecap="round"/>
<path d="M11.0185 1.83301C7.64515 1.83301 4.91348 4.56467 4.91348 7.93801V9.86301C4.91348 10.4863 4.65682 11.4213 4.33598 11.953L3.17182 13.8963C2.45682 15.0972 2.95182 16.4355 4.27182 16.8755C8.65348 18.333 13.3926 18.333 17.7743 16.8755C19.0118 16.463 19.5435 15.0147 18.8743 13.8963L17.7101 11.953C17.3893 11.4213 17.1327 10.4772 17.1327 9.86301V7.93801C17.1235 4.58301 14.3735 1.83301 11.0185 1.83301Z" stroke="#111827" stroke-width="1.5" stroke-miterlimit="10" stroke-linecap="round"/>
<path d="M14.0523 17.252C14.0523 18.9295 12.6773 20.3045 10.9998 20.3045C10.1656 20.3045 9.3956 19.9561 8.8456 19.4061C8.2956 18.8561 7.94727 18.0861 7.94727 17.252" stroke="#111827" stroke-width="1.5" stroke-miterlimit="10"/>
</svg>
