<svg width="238" height="238" viewBox="0 0 238 238" fill="none" xmlns="http://www.w3.org/2000/svg">
<g filter="url(#filter0_i_3426_7886)">
<path d="M207.559 18.5407C210.464 21.4452 210.464 26.1544 207.559 29.0589L29.059 207.559C26.1545 210.463 21.4453 210.463 18.5408 207.559C15.6363 204.654 15.6363 199.945 18.5408 197.041L38.48 177.102C38.4607 174.946 38.7652 172.749 39.4347 170.575C44.7005 153.473 50.15 131.545 50.15 114.041V101.153C50.15 67.6289 73.254 39.4989 104.408 31.8209C104.597 30.8624 104.882 29.9226 105.257 29.0155C106.005 27.2108 107.101 25.571 108.482 24.1897C109.863 22.8084 111.503 21.7127 113.308 20.9652C115.112 20.2176 117.047 19.8329 119 19.8329C120.953 19.8329 122.888 20.2176 124.692 20.9652C126.497 21.7127 128.137 22.8084 129.518 24.1897C130.899 25.571 131.995 27.2108 132.743 29.0155C132.973 29.5714 133.169 30.1395 133.33 30.7168C146.597 32.9195 158.629 38.7807 168.353 47.2287L197.041 18.5407C199.945 15.6362 204.655 15.6362 207.559 18.5407Z" fill="#CDCDCD"/>
<path d="M137.324 205.923C138.32 203.517 138.833 200.937 138.833 198.333H181.569C194.862 198.333 204.515 185.48 201.478 172.539C197.384 155.098 192.95 132.051 192.95 114.041V101.153C192.95 90.8462 190.766 81.0494 186.836 72.1999L60.7031 198.333H99.1667C99.1667 200.937 99.6797 203.517 100.676 205.923C101.673 208.329 103.134 210.515 104.976 212.357C106.817 214.199 109.004 215.66 111.41 216.657C113.816 217.653 116.395 218.166 119 218.166C121.605 218.166 124.184 217.653 126.59 216.657C128.996 215.66 131.183 214.199 133.024 212.357C134.866 210.515 136.327 208.329 137.324 205.923Z" fill="#CDCDCD"/>
</g>
<defs>
<filter id="filter0_i_3426_7886" x="0" y="0" width="238" height="242" filterUnits="userSpaceOnUse" color-interpolation-filters="sRGB">
<feFlood flood-opacity="0" result="BackgroundImageFix"/>
<feBlend mode="normal" in="SourceGraphic" in2="BackgroundImageFix" result="shape"/>
<feColorMatrix in="SourceAlpha" type="matrix" values="0 0 0 0 0 0 0 0 0 0 0 0 0 0 0 0 0 0 127 0" result="hardAlpha"/>
<feOffset dy="4"/>
<feGaussianBlur stdDeviation="2"/>
<feComposite in2="hardAlpha" operator="arithmetic" k2="-1" k3="1"/>
<feColorMatrix type="matrix" values="0 0 0 0 0 0 0 0 0 0 0 0 0 0 0 0 0 0 0.25 0"/>
<feBlend mode="normal" in2="shape" result="effect1_innerShadow_3426_7886"/>
</filter>
</defs>
</svg>
